<?xml version="1.0" encoding="UTF-8"?>
<svg width="46px" height="46px" viewBox="0 0 46 46" version="1.1" xmlns="http://www.w3.org/2000/svg" xmlns:xlink="http://www.w3.org/1999/xlink">
    <title>profile-user</title>
    <g id="loopstyle---Sprint-5-(Notifications)" stroke="none" stroke-width="1" fill="none" fill-rule="evenodd">
        <g id="profile-user" fill="#FFFFFF" fill-rule="nonzero">
            <path d="M22.766,-1.22211269e-15 C10.194,-1.22211269e-15 0,10.192 0,22.765 C0,35.338 10.193,45.53 22.766,45.53 C35.34,45.53 45.532,35.338 45.532,22.765 C45.532,10.192 35.34,-1.22211269e-15 22.766,-1.22211269e-15 Z M22.766,6.807 C26.926,6.807 30.297,10.179 30.297,14.337 C30.297,18.496 26.926,21.867 22.766,21.867 C18.608,21.867 15.237,18.496 15.237,14.337 C15.237,10.179 18.608,6.807 22.766,6.807 Z M22.761,39.578 C18.612,39.578 14.812,38.067 11.881,35.566 C11.167,34.957 10.755,34.064 10.755,33.127 C10.755,28.91 14.168,25.535 18.386,25.535 L27.148,25.535 C31.367,25.535 34.767,28.91 34.767,33.127 C34.767,34.065 34.357,34.956 33.642,35.565 C30.712,38.067 26.911,39.578 22.761,39.578 Z" id="Shape"></path>
        </g>
    </g>
</svg>